<svg version="1.1" xmlns="http://www.w3.org/2000/svg" width="59" height="8">

  <!-- S glyph -->
  <path d="M 5 2
    h -1   v -2
    h -3   v 4
    h 4    v 2
    h -5   v -1
    h 1    v 2
    h 3    v -4
    h -4   v -2
    h 5    v 1"
  />

  <!-- i glyph -->
  <path d="M 6 4
    h 1    v 3
    h -1   v -3"
  />
  <path d="M 6 2
    h 1    v 1
    h -1   v -1"
  />

  <!-- m glyph -->
  <path d="M 8 3
    h 2    v 2
    h 1    v -2
    h 1    v 4
    h 1    v -3
    h -4   v 3
    h -1   v -4"
  />

  <!-- p glyph -->
  <path d="M 14 4
    h 1    v 4
    h -1   v -4"
  />
  <path d="M 15 4
    h 3    v 1
    h -3.5 v 1
    h 2.5  v -3
    h -2   v 1"
  />

  <!-- l glyph -->
  <path d="M 19 0
    h 1    v 7
    h -1   v -7"
  />

  <!-- e glyph -->
  <path d="M 21 3
    h 3    v 2
    h -2   v 1
    h 2    v 1
    h -3   v -4"
  />

  <!-- D glyph -->
  <path d="M 25 0
    h 1    v 7
    h -1   v -7"
  />
  <path d="M 25.5 0
    h 2.5  v 2
    h 2    v 3
    h -2   v 2
    h -2.5 v -1
    h 3.5  v -5
    h -3.5 v -1"
  />

  <!-- u glyph -->
  <path d="M 31 3
    h 1    v 4
    h 3    v -4
    h -1   v 3
    h -3   v -3"
  />

  <!-- n glyph -->
  <path d="M 36 3
    h 3    v 4
    h 1    v -3
    h -3   v 3
    h -1   v -4"
  />

  <!-- g glyph -->
  <path d="M 44 4
    h 1    v 3
    h -4   v 1
    h 3    v -4"
  />
  <path d="M 44 3
    h -2   v 3
    h 2.5  v -1
    h -3.5 v -1
    h 3    v -1"
  />

  <!-- e glyph -->
  <path d="M 46 3
    h 3    v 2
    h -2   v 1
    h 2    v 1
    h -3   v -4"
  />

  <!-- o glyph -->
  <path d="M 50 4
    h 1    v 3
    h 2    v -1
    h -3   v -2"
  />
  <path d="M 51 3
    h 2    v 3
    h 1    v -2
    h -3   v -1"
  />

  <!-- n glyph -->
  <path d="M 55 3
    h 3    v 4
    h 1    v -3
    h -3   v 3
    h -1   v -4"
  />

</svg>
